<svg xmlns="http://www.w3.org/2000/svg" xmlns:xlink="http://www.w3.org/1999/xlink" width="500" zoomAndPan="magnify" viewBox="0 0 375 374.999991" height="500" preserveAspectRatio="xMidYMid meet" version="1.0"><defs><g/><clipPath id="d4e90b0561"><path d="M 63.804688 151.464844 L 285.25 151.464844 L 285.25 223.535156 L 63.804688 223.535156 Z M 63.804688 151.464844 " clip-rule="nonzero"/></clipPath><clipPath id="8e4909245b"><path d="M 63.804688 151.464844 L 285.054688 151.464844 L 285.054688 223.464844 L 63.804688 223.464844 Z M 63.804688 151.464844 " clip-rule="nonzero"/></clipPath><clipPath id="149642537c"><path d="M 76.53125 158.117188 L 187.5 158.117188 L 187.5 216.644531 L 76.53125 216.644531 Z M 76.53125 158.117188 " clip-rule="nonzero"/></clipPath></defs><g clip-path="url(#d4e90b0561)"><path fill="#323232" d="M 63.804688 151.464844 L 285.25 151.464844 L 285.25 223.535156 L 63.804688 223.535156 Z M 63.804688 151.464844 " fill-opacity="1" fill-rule="nonzero"/></g><g clip-path="url(#8e4909245b)"><path stroke-linecap="butt" transform="matrix(0.75, 0, 0, 0.75, 63.806338, 151.46536)" fill="none" stroke-linejoin="miter" d="M -0.00220055 -0.000688938 L 295.247838 -0.000688938 L 295.247838 96.093074 L -0.00220055 96.093074 Z M -0.00220055 -0.000688938 " stroke="#ffffff" stroke-width="6" stroke-opacity="1" stroke-miterlimit="4"/></g><g clip-path="url(#149642537c)"><path fill="#ffffff" d="M 76.53125 158.117188 L 187.5 158.117188 L 187.5 216.644531 L 76.53125 216.644531 Z M 76.53125 158.117188 " fill-opacity="1" fill-rule="nonzero"/></g><g fill="#323232" fill-opacity="1"><g transform="translate(90.770111, 196.499987)"><g><path d="M 13.734375 -4.359375 L 5.203125 -4.359375 L 3.625 0 L 0.921875 0 L 8 -19.46875 L 10.953125 -19.46875 L 18.015625 0 L 15.3125 0 Z M 13 -6.4375 L 9.46875 -16.328125 L 5.921875 -6.4375 Z M 13 -6.4375 "/></g></g></g><g fill="#323232" fill-opacity="1"><g transform="translate(111.829533, 196.499987)"><g><path d="M 8.265625 -19.578125 C 10.398438 -19.578125 12.25 -19.175781 13.8125 -18.375 C 15.375 -17.582031 16.570312 -16.445312 17.40625 -14.96875 C 18.238281 -13.488281 18.65625 -11.75 18.65625 -9.75 C 18.65625 -7.75 18.238281 -6.007812 17.40625 -4.53125 C 16.570312 -3.0625 15.375 -1.9375 13.8125 -1.15625 C 12.25 -0.382812 10.398438 0 8.265625 0 L 2.15625 0 L 2.15625 -19.578125 Z M 8.265625 -2.109375 C 10.785156 -2.109375 12.710938 -2.773438 14.046875 -4.109375 C 15.378906 -5.453125 16.046875 -7.332031 16.046875 -9.75 C 16.046875 -12.1875 15.375 -14.085938 14.03125 -15.453125 C 12.695312 -16.816406 10.773438 -17.5 8.265625 -17.5 L 4.71875 -17.5 L 4.71875 -2.109375 Z M 8.265625 -2.109375 "/></g></g></g><g fill="#323232" fill-opacity="1"><g transform="translate(133.815537, 196.499987)"><g><path d="M 12.46875 0 L 7.8125 -8 L 4.71875 -8 L 4.71875 0 L 2.15625 0 L 2.15625 -19.578125 L 8.484375 -19.578125 C 9.960938 -19.578125 11.210938 -19.320312 12.234375 -18.8125 C 13.253906 -18.3125 14.015625 -17.628906 14.515625 -16.765625 C 15.023438 -15.910156 15.28125 -14.929688 15.28125 -13.828125 C 15.28125 -12.472656 14.890625 -11.28125 14.109375 -10.25 C 13.335938 -9.21875 12.175781 -8.535156 10.625 -8.203125 L 15.53125 0 Z M 4.71875 -10.0625 L 8.484375 -10.0625 C 9.867188 -10.0625 10.90625 -10.398438 11.59375 -11.078125 C 12.289062 -11.765625 12.640625 -12.679688 12.640625 -13.828125 C 12.640625 -14.984375 12.296875 -15.878906 11.609375 -16.515625 C 10.929688 -17.148438 9.890625 -17.46875 8.484375 -17.46875 L 4.71875 -17.46875 Z M 4.71875 -10.0625 "/></g></g></g><g fill="#323232" fill-opacity="1"><g transform="translate(153.021806, 196.499987)"><g><path d="M 4.71875 -17.5 L 4.71875 -10.953125 L 11.859375 -10.953125 L 11.859375 -8.84375 L 4.71875 -8.84375 L 4.71875 -2.109375 L 12.703125 -2.109375 L 12.703125 0 L 2.15625 0 L 2.15625 -19.609375 L 12.703125 -19.609375 L 12.703125 -17.5 Z M 4.71875 -17.5 "/></g></g></g><g fill="#323232" fill-opacity="1"><g transform="translate(169.560663, 196.499987)"><g><path d="M 8.375 0.203125 C 7.082031 0.203125 5.925781 -0.0234375 4.90625 -0.484375 C 3.882812 -0.953125 3.082031 -1.59375 2.5 -2.40625 C 1.914062 -3.21875 1.613281 -4.15625 1.59375 -5.21875 L 4.328125 -5.21875 C 4.421875 -4.300781 4.800781 -3.53125 5.46875 -2.90625 C 6.132812 -2.28125 7.101562 -1.96875 8.375 -1.96875 C 9.59375 -1.96875 10.550781 -2.269531 11.25 -2.875 C 11.957031 -3.488281 12.3125 -4.269531 12.3125 -5.21875 C 12.3125 -5.96875 12.101562 -6.578125 11.6875 -7.046875 C 11.269531 -7.515625 10.753906 -7.867188 10.140625 -8.109375 C 9.523438 -8.359375 8.691406 -8.625 7.640625 -8.90625 C 6.347656 -9.238281 5.3125 -9.570312 4.53125 -9.90625 C 3.757812 -10.25 3.097656 -10.78125 2.546875 -11.5 C 1.992188 -12.226562 1.71875 -13.195312 1.71875 -14.40625 C 1.71875 -15.476562 1.988281 -16.425781 2.53125 -17.25 C 3.070312 -18.070312 3.832031 -18.707031 4.8125 -19.15625 C 5.800781 -19.601562 6.929688 -19.828125 8.203125 -19.828125 C 10.035156 -19.828125 11.535156 -19.367188 12.703125 -18.453125 C 13.878906 -17.535156 14.539062 -16.320312 14.6875 -14.8125 L 11.890625 -14.8125 C 11.796875 -15.550781 11.398438 -16.207031 10.703125 -16.78125 C 10.015625 -17.351562 9.097656 -17.640625 7.953125 -17.640625 C 6.878906 -17.640625 6.003906 -17.363281 5.328125 -16.8125 C 4.660156 -16.257812 4.328125 -15.488281 4.328125 -14.5 C 4.328125 -13.78125 4.523438 -13.195312 4.921875 -12.75 C 5.328125 -12.300781 5.820312 -11.957031 6.40625 -11.71875 C 7 -11.488281 7.832031 -11.222656 8.90625 -10.921875 C 10.195312 -10.566406 11.234375 -10.21875 12.015625 -9.875 C 12.804688 -9.53125 13.484375 -8.992188 14.046875 -8.265625 C 14.609375 -7.546875 14.890625 -6.570312 14.890625 -5.34375 C 14.890625 -4.382812 14.632812 -3.484375 14.125 -2.640625 C 13.625 -1.796875 12.875 -1.109375 11.875 -0.578125 C 10.882812 -0.0546875 9.71875 0.203125 8.375 0.203125 Z M 8.375 0.203125 "/></g></g></g><g fill="#ffffff" fill-opacity="1"><g transform="translate(193.84426, 196.38173)"><g><path d="M 8.375 0.203125 C 7.082031 0.203125 5.925781 -0.0234375 4.90625 -0.484375 C 3.882812 -0.953125 3.082031 -1.59375 2.5 -2.40625 C 1.914062 -3.21875 1.613281 -4.15625 1.59375 -5.21875 L 4.328125 -5.21875 C 4.421875 -4.300781 4.800781 -3.53125 5.46875 -2.90625 C 6.132812 -2.28125 7.101562 -1.96875 8.375 -1.96875 C 9.59375 -1.96875 10.550781 -2.269531 11.25 -2.875 C 11.957031 -3.488281 12.3125 -4.269531 12.3125 -5.21875 C 12.3125 -5.96875 12.101562 -6.578125 11.6875 -7.046875 C 11.269531 -7.515625 10.753906 -7.867188 10.140625 -8.109375 C 9.523438 -8.359375 8.691406 -8.625 7.640625 -8.90625 C 6.347656 -9.238281 5.3125 -9.570312 4.53125 -9.90625 C 3.757812 -10.25 3.097656 -10.78125 2.546875 -11.5 C 1.992188 -12.226562 1.71875 -13.195312 1.71875 -14.40625 C 1.71875 -15.476562 1.988281 -16.425781 2.53125 -17.25 C 3.070312 -18.070312 3.832031 -18.707031 4.8125 -19.15625 C 5.800781 -19.601562 6.929688 -19.828125 8.203125 -19.828125 C 10.035156 -19.828125 11.535156 -19.367188 12.703125 -18.453125 C 13.878906 -17.535156 14.539062 -16.320312 14.6875 -14.8125 L 11.890625 -14.8125 C 11.796875 -15.550781 11.398438 -16.207031 10.703125 -16.78125 C 10.015625 -17.351562 9.097656 -17.640625 7.953125 -17.640625 C 6.878906 -17.640625 6.003906 -17.363281 5.328125 -16.8125 C 4.660156 -16.257812 4.328125 -15.488281 4.328125 -14.5 C 4.328125 -13.78125 4.523438 -13.195312 4.921875 -12.75 C 5.328125 -12.300781 5.820312 -11.957031 6.40625 -11.71875 C 7 -11.488281 7.832031 -11.222656 8.90625 -10.921875 C 10.195312 -10.566406 11.234375 -10.21875 12.015625 -9.875 C 12.804688 -9.53125 13.484375 -8.992188 14.046875 -8.265625 C 14.609375 -7.546875 14.890625 -6.570312 14.890625 -5.34375 C 14.890625 -4.382812 14.632812 -3.484375 14.125 -2.640625 C 13.625 -1.796875 12.875 -1.109375 11.875 -0.578125 C 10.882812 -0.0546875 9.71875 0.203125 8.375 0.203125 Z M 8.375 0.203125 "/></g></g></g><g fill="#ffffff" fill-opacity="1"><g transform="translate(210.326097, 196.38173)"><g><path d="M 4.65625 -19.578125 L 4.65625 -7.1875 C 4.65625 -5.445312 5.082031 -4.15625 5.9375 -3.3125 C 6.789062 -2.46875 7.976562 -2.046875 9.5 -2.046875 C 11 -2.046875 12.171875 -2.46875 13.015625 -3.3125 C 13.867188 -4.15625 14.296875 -5.445312 14.296875 -7.1875 L 14.296875 -19.578125 L 16.859375 -19.578125 L 16.859375 -7.21875 C 16.859375 -5.59375 16.53125 -4.222656 15.875 -3.109375 C 15.21875 -1.992188 14.332031 -1.160156 13.21875 -0.609375 C 12.101562 -0.0664062 10.851562 0.203125 9.46875 0.203125 C 8.082031 0.203125 6.832031 -0.0664062 5.71875 -0.609375 C 4.601562 -1.160156 3.722656 -1.992188 3.078125 -3.109375 C 2.429688 -4.222656 2.109375 -5.59375 2.109375 -7.21875 L 2.109375 -19.578125 Z M 4.65625 -19.578125 "/></g></g></g><g fill="#ffffff" fill-opacity="1"><g transform="translate(229.278805, 196.38173)"><g><path d="M 12.46875 0 L 7.8125 -8 L 4.71875 -8 L 4.71875 0 L 2.15625 0 L 2.15625 -19.578125 L 8.484375 -19.578125 C 9.960938 -19.578125 11.210938 -19.320312 12.234375 -18.8125 C 13.253906 -18.3125 14.015625 -17.628906 14.515625 -16.765625 C 15.023438 -15.910156 15.28125 -14.929688 15.28125 -13.828125 C 15.28125 -12.472656 14.890625 -11.28125 14.109375 -10.25 C 13.335938 -9.21875 12.175781 -8.535156 10.625 -8.203125 L 15.53125 0 Z M 4.71875 -10.0625 L 8.484375 -10.0625 C 9.867188 -10.0625 10.90625 -10.398438 11.59375 -11.078125 C 12.289062 -11.765625 12.640625 -12.679688 12.640625 -13.828125 C 12.640625 -14.984375 12.296875 -15.878906 11.609375 -16.515625 C 10.929688 -17.148438 9.890625 -17.46875 8.484375 -17.46875 L 4.71875 -17.46875 Z M 4.71875 -10.0625 "/></g></g></g><g fill="#ffffff" fill-opacity="1"><g transform="translate(246.350276, 196.38173)"><g><path d="M 4.71875 -17.5 L 4.71875 -10.953125 L 11.859375 -10.953125 L 11.859375 -8.84375 L 4.71875 -8.84375 L 4.71875 -2.109375 L 12.703125 -2.109375 L 12.703125 0 L 2.15625 0 L 2.15625 -19.609375 L 12.703125 -19.609375 L 12.703125 -17.5 Z M 4.71875 -17.5 "/></g></g></g></svg>